HIERARCHY
ROOT Hips
{
	OFFSET -3.958830 18.904000 13.208200
	CHANNELS 6 Xposition Yposition Zposition Zrotation Yrotation Xrotation 
	JOINT LHipJoint
	{
		OFFSET 0.000000 0.000000 0.000000
		CHANNELS 3 Zrotation Yrotation Xrotation
		JOINT LeftUpLeg
		{
			OFFSET 1.800000 -1.400000 0.085000
			CHANNELS 3 Zrotation Yrotation Xrotation
			JOINT LeftLeg
			{
				OFFSET 2.215000 -6.000000 0.000000
				CHANNELS 3 Zrotation Yrotation Xrotation
				JOINT LeftFoot
				{
					OFFSET 2.500000 -6.900000 0.000000
					CHANNELS 3 Zrotation Yrotation Xrotation
					JOINT LeftToeBase
					{
						OFFSET 0.200000 -0.500000 1.950000
						CHANNELS 3 Zrotation Yrotation Xrotation
						End Site
						{
							OFFSET 0.000000 0.000000 0.000000
						}
					}
				}
			}
		}
	}
	JOINT RHipJoint
	{
		OFFSET 0.000000 0.000000 0.000000
		CHANNELS 3 Zrotation Yrotation Xrotation
		JOINT RightUpLeg
		{
			OFFSET -1.800000 -1.400000 0.085000
			CHANNELS 3 Zrotation Yrotation Xrotation
			JOINT RightLeg
			{
				OFFSET -2.215000 -6.000000 0.000000
				CHANNELS 3 Zrotation Yrotation Xrotation
				JOINT RightFoot
				{
					OFFSET -2.500000 -6.900000 0.000000
					CHANNELS 3 Zrotation Yrotation Xrotation
					JOINT RightToeBase
					{
						OFFSET -0.200000 -0.500000 1.950000
						CHANNELS 3 Zrotation Yrotation Xrotation
						End Site
						{
							OFFSET 0.000000 0.000000 0.000000
						}
					}
				}
			}
		}
	}
	JOINT LowerBack
	{
		OFFSET 0.000000 0.000000 0.000000
		CHANNELS 3 Zrotation Yrotation Xrotation
		JOINT Spine
		{
			OFFSET -0.087000 1.940000 -0.288900
			CHANNELS 3 Zrotation Yrotation Xrotation
			JOINT Spine1
			{
				OFFSET 0.000000 1.950000 0.060000
				CHANNELS 3 Zrotation Yrotation Xrotation
				JOINT Neck
				{
					OFFSET 0.000000 0.000000 0.000000
					CHANNELS 3 Zrotation Yrotation Xrotation
					JOINT Neck1
					{
						OFFSET 0.000000 1.600000 0.340000
						CHANNELS 3 Zrotation Yrotation Xrotation
						JOINT Head
						{
							OFFSET 0.000000 1.667000 -0.240000
							CHANNELS 3 Zrotation Yrotation Xrotation
							End Site
							{
								OFFSET 0.000000 0.000000 0.000000
							}
						}
					}
				}
				JOINT LeftShoulder
				{
					OFFSET 0.000000 0.000000 0.000000
					CHANNELS 3 Zrotation Yrotation Xrotation
					JOINT LeftArm
					{
						OFFSET 2.700000 1.550000 -0.730000
						CHANNELS 3 Zrotation Yrotation Xrotation
						JOINT LeftForeArm
						{
							OFFSET 5.450000 0.000000 0.000000
							CHANNELS 3 Zrotation Yrotation Xrotation
							JOINT LeftHand
							{
								OFFSET 3.450000 0.000000 0.000000
								CHANNELS 3 Zrotation Yrotation Xrotation
								JOINT LeftHandIndex1
								{
									OFFSET 0.750000 0.000000 0.000000
									CHANNELS 3 Zrotation Yrotation Xrotation
									End Site
									{
										OFFSET 0.000000 0.000000 0.000000
									}
								}
							}
						}
					}
				}
				JOINT RightShoulder
				{
					OFFSET 0.000000 0.000000 0.000000
					CHANNELS 3 Zrotation Yrotation Xrotation
					JOINT RightArm
					{
						OFFSET -2.700000 1.550000 -0.730000
						CHANNELS 3 Zrotation Yrotation Xrotation
						JOINT RightForeArm
						{
							OFFSET -5.450000 0.000000 0.000000
							CHANNELS 3 Zrotation Yrotation Xrotation
							JOINT RightHand
							{
								OFFSET -3.450000 0.000000 0.000000
								CHANNELS 3 Zrotation Yrotation Xrotation
								JOINT RightHandIndex1
								{
									OFFSET -0.750000 0.000000 0.000000
									CHANNELS 3 Zrotation Yrotation Xrotation
									End Site
									{
										OFFSET 0.000000 0.000000 0.000000
									}
								}
							}
						}
					}
				}
			}
		}
	}
}
MOTION
Frames: 12
Frame Time: 0.016667
1.741660 14.758600 -3.387570 -5.306751 25.073940 -4.485902 -16.099721 8.171028 8.389981 51.190897 2.720192 -59.845310 -22.954292 33.918731 58.590865 1.074175 15.107794 -0.513294 0.403560 -0.036470 0.400280 18.623323 -6.305033 2.979785 -42.604170 3.503955 -35.389187 11.829811 -24.309115 67.292644 -2.018073 -11.876212 0.441147 0.096770 0.297060 -0.149660 -2.338935 -3.069292 -10.975329 -21.562713 16.395559 54.545392 9.658298 7.513066 3.676273 -5.172366 -10.885017 -22.327643 -43.072000 15.577095 61.294776 18.226090 -6.560120 -22.339200 -4.603313 -37.867269 -4.303514 6.265220 -36.306926 -7.139545 106.350380 -62.269549 -80.039092 -3.303993 0.796520 1.278240 -0.328160 0.171320 0.135830 19.968505 47.630308 17.815852 22.671774 35.737601 -3.720800 6.900846 21.648178 1.588415 2.061693 -0.315809 -0.643230 0.886570 0.131820 -0.285030 
1.746390 14.734910 -3.383740 -5.400525 25.120735 -4.650671 -16.106024 8.144402 8.436058 52.130791 2.458612 -59.823406 -23.789155 34.455306 58.446420 1.094120 15.148010 -0.546853 0.444840 0.024240 0.426340 18.622619 -6.331786 2.928732 -42.146682 3.024162 -35.599474 10.586108 -23.934947 68.224508 -2.034331 -11.909233 0.414749 0.131110 0.268800 -0.129000 -2.321658 -3.058832 -10.975296 -22.425082 16.403509 53.856189 9.819992 7.417096 4.309417 -5.522784 -10.540306 -22.130958 -41.548296 15.630695 62.439092 17.948650 -5.479810 -22.119350 -4.300987 -38.034710 -4.430019 6.218872 -35.405815 -7.772984 104.300876 -63.671206 -78.727091 -3.272578 0.638851 1.263640 -0.323170 0.188370 0.128780 20.126982 47.479493 17.722499 23.117113 35.751612 -3.942386 7.739320 22.367970 1.662773 2.034558 -0.361180 -0.613080 0.856370 0.117890 -0.290430 
1.767930 14.695600 -3.378700 -5.563538 24.862717 -5.257146 -16.094103 8.105694 8.464007 53.302255 1.920407 -59.384239 -24.673850 35.339642 58.653977 1.170426 15.228409 -0.569315 0.517330 0.146000 0.443020 18.632504 -6.421461 2.872258 -41.498485 2.335557 -36.023983 8.529215 -23.236872 69.879336 -2.077658 -11.971618 0.396854 0.191790 0.251970 -0.110640 -2.360632 -2.926453 -10.973191 -23.649917 16.400103 52.999416 9.703506 7.314652 5.389177 -6.145438 -10.051927 -22.156287 -39.317840 15.491020 64.258258 18.300250 -4.270070 -21.386140 -3.947555 -38.594286 -4.997442 6.133765 -34.164828 -9.160559 99.989114 -66.159604 -74.906811 -3.154424 0.289289 1.224640 -0.311550 0.215010 0.158850 20.809126 47.388136 18.159447 23.784088 36.389630 -4.110065 8.055311 22.518711 1.550463 2.019098 -0.423761 -0.562300 0.836190 0.073430 -0.270810 
1.795810 14.649100 -3.369780 -6.208552 24.529381 -5.992170 -16.083793 8.040648 8.503868 54.477567 1.705108 -59.339492 -24.369791 36.099331 59.934119 1.193812 15.414610 -0.645063 0.580830 0.221540 0.496280 18.646396 -6.497533 2.814434 -40.959296 1.752240 -36.068900 7.371883 -22.982806 70.751746 -2.120750 -12.012614 0.366509 0.238720 0.222010 -0.080690 -2.399901 -2.772792 -10.977041 -24.234397 15.784826 51.952117 8.887631 7.313186 6.043253 -6.346874 -9.411166 -21.736921 -37.136306 15.283629 66.447860 18.067140 -2.979890 -22.088170 -3.951966 -38.806307 -5.478126 5.020939 -34.369204 -9.958120 95.345183 -68.226891 -70.217375 -3.024809 -0.017524 1.240930 -0.312220 0.251730 0.157520 20.802596 47.142141 18.157049 25.650511 37.595479 -3.266229 7.735904 21.686519 1.345114 2.016349 -0.434359 -0.541250 0.826500 0.055180 -0.286780 
1.818520 14.619020 -3.350690 -6.795397 23.978396 -6.588535 -16.062485 7.991403 8.481097 54.750515 1.747910 -59.371113 -22.139081 36.223992 62.277652 1.254844 15.575303 -0.697286 0.637640 0.287800 0.528170 18.667029 -6.536385 2.827925 -40.859938 1.531245 -36.060963 7.348010 -23.292570 71.182621 -2.182239 -12.097849 0.344828 0.255330 0.188020 -0.053120 -2.475119 -2.603853 -10.992457 -24.528349 15.375261 51.212105 8.235235 7.251677 5.982501 -6.120586 -9.212753 -22.478224 -36.996483 16.132477 68.140318 18.289630 -2.384310 -22.100580 -4.272654 -39.112574 -5.110031 3.808052 -34.208817 -9.411117 96.264315 -68.307228 -72.038595 -3.024491 0.003804 1.246790 -0.327600 0.291930 0.174710 20.756656 47.315756 18.417941 27.114916 39.361011 -1.765216 7.290294 19.568523 1.183311 2.081969 -0.421578 -0.495630 0.797950 0.020860 -0.281290 
1.840050 14.607100 -3.335570 -7.172453 23.580353 -7.493018 -16.039218 8.047826 8.413042 53.945015 1.497615 -59.257598 -19.127952 35.746244 65.013011 1.323338 15.667003 -0.719026 0.700160 0.386470 0.561500 18.670316 -6.650139 2.785838 -40.863129 1.438376 -35.227595 7.484543 -23.374688 70.947644 -2.215190 -12.065028 0.374774 0.286060 0.141850 -0.064570 -2.539515 -2.491901 -10.961241 -24.691752 15.110951 50.728523 7.711411 7.221666 6.339975 -5.933468 -8.961490 -23.184719 -36.776121 16.734180 69.460714 18.232960 -1.707680 -22.147830 -4.188571 -39.650521 -4.941368 3.292237 -34.368132 -8.941496 97.333178 -68.150427 -73.510782 -3.012231 0.056940 1.231610 -0.349900 0.331880 0.204630 20.366304 47.732756 18.888844 27.460556 40.327600 -1.432447 6.714011 19.231521 1.081162 2.105230 -0.441356 -0.450820 0.786660 -0.041990 -0.269460 
1.853590 14.602110 -3.321490 -7.436955 22.743399 -8.539032 -16.009347 8.122259 8.318726 53.277384 1.454571 -58.540777 -16.514555 35.173327 67.158944 1.314278 15.759191 -0.768341 0.702580 0.393020 0.550420 18.673974 -6.787093 2.749789 -40.899746 1.563381 -34.265161 7.895632 -23.432452 70.394940 -2.218377 -12.019588 0.366956 0.287420 0.140940 -0.038610 -2.630485 -2.332845 -10.923192 -24.837532 15.046452 50.175919 7.334357 7.451761 6.546481 -6.005962 -8.908283 -23.754096 -36.825088 17.108698 69.621449 18.809580 -1.326240 -22.772630 -3.560801 -40.088393 -5.199828 3.549313 -34.485962 -8.713151 97.416773 -68.586026 -73.959703 -3.010243 0.008418 1.252770 -0.354660 0.351980 0.201580 20.035231 48.113839 19.513825 27.520714 41.121456 -1.486051 6.570261 19.447568 1.095873 2.094157 -0.432719 -0.443030 0.779050 -0.026490 -0.266400 
1.862140 14.607960 -3.305870 -7.807867 21.557995 -9.577922 -16.007396 8.275862 8.238741 53.146648 1.703596 -57.211241 -14.914348 34.785175 68.156962 1.273713 15.754736 -0.799585 0.728780 0.416300 0.591070 18.647820 -6.933163 2.639856 -40.338987 1.692924 -33.281576 7.621838 -22.862208 69.685183 -2.193571 -11.848699 0.385417 0.300710 0.110530 -0.015960 -2.642882 -2.314265 -10.849514 -25.451840 14.947902 48.411080 7.404236 7.587585 7.568047 -6.152490 -8.802973 -24.245919 -36.869457 17.478708 70.155145 17.860000 -0.587880 -23.876610 -2.063933 -40.328982 -5.863090 3.917129 -34.798995 -8.983878 95.316318 -69.039920 -70.909526 -2.955151 -0.046948 1.277750 -0.366700 0.382720 0.184610 18.862129 48.635340 20.442115 27.843578 42.805935 -1.221019 5.108456 19.296894 0.930734 2.096972 -0.429759 -0.432670 0.771890 -0.025820 -0.282590 
1.864090 14.626950 -3.277000 -8.164677 20.187167 -10.843146 -15.989540 8.452785 8.134050 53.241757 1.870506 -55.221177 -13.655664 34.442348 68.906399 1.238865 15.716013 -0.827146 0.761790 0.447800 0.616380 18.627409 -7.151277 2.492264 -39.580666 1.837174 -31.977323 7.191660 -22.059654 68.758557 -2.154464 -11.614593 0.428649 0.312080 0.074430 0.006880 -2.701719 -2.208078 -10.744789 -25.949301 14.725376 46.910157 7.482920 7.699272 7.926602 -6.354745 -8.915485 -24.674497 -37.819058 18.446653 70.100062 17.752700 -0.013480 -25.351990 -0.761989 -40.265077 -6.098988 4.762214 -34.404055 -9.414766 93.094841 -69.387157 -67.777873 -2.876553 -0.020835 1.306920 -0.389060 0.413650 0.173590 18.042796 48.855992 20.980059 28.384688 44.401867 -0.540048 4.914192 19.232367 0.967479 2.108175 -0.415315 -0.412040 0.753750 -0.026570 -0.292970 
1.865460 14.648510 -3.229870 -8.567929 18.330685 -12.384349 -15.963703 8.632929 7.964227 53.285466 2.422618 -52.649992 -11.612571 33.779048 69.937340 1.125543 15.726474 -0.870218 0.742470 0.385290 0.618890 18.609369 -7.355345 2.420505 -39.054201 2.254340 -30.695620 7.418549 -21.884430 68.120941 -2.118347 -11.542036 0.422412 0.310230 0.104970 0.032570 -2.784536 -2.033369 -10.665488 -26.087050 14.266082 44.589166 6.879847 8.131122 9.079845 -6.746786 -8.884360 -24.865052 -37.431417 18.649042 69.549436 18.057120 0.530090 -25.751860 0.464523 -40.273483 -6.117779 5.128575 -33.808365 -9.823713 91.120155 -68.908109 -65.017809 -2.915532 0.103680 1.358790 -0.369350 0.391330 0.144020 17.520540 48.925890 21.537740 28.630386 45.870808 -0.194360 4.595355 19.535473 0.985708 2.072773 -0.389100 -0.461860 0.764770 0.028320 -0.328550 
1.861780 14.697350 -3.160960 -8.895267 16.923310 -14.118022 -15.937707 8.903171 7.730596 53.016098 2.433935 -49.821205 -9.542479 32.525654 70.411761 1.082865 15.500941 -0.844597 0.759670 0.442730 0.633550 18.572354 -7.644126 2.299518 -38.548385 2.220945 -28.557823 7.687530 -21.722270 66.892670 -2.083142 -11.383486 0.464968 0.328860 0.077880 0.038310 -2.831182 -1.903009 -10.533478 -26.483249 13.683216 41.700451 6.128638 8.488453 10.548987 -6.931387 -8.547544 -24.871819 -35.902786 18.523124 70.129130 17.071430 1.689030 -25.933640 1.123552 -40.455428 -5.870922 5.078266 -33.085720 -10.758737 86.127883 -69.079957 -59.493074 -2.895014 0.299413 1.322480 -0.356120 0.405340 0.125980 16.964615 48.982800 21.905850 29.254491 46.733895 -0.116095 4.540437 20.842291 0.982229 2.034222 -0.412881 -0.424430 0.743770 0.018850 -0.324810 
1.854480 14.770910 -3.074980 -8.999730 15.198624 -16.051116 -15.912755 9.261185 7.404339 52.588249 2.383538 -45.918377 -7.976572 31.203610 70.055908 1.092608 15.176880 -0.772657 0.794670 0.514850 0.655090 18.519080 -7.986471 2.166501 -37.959947 2.189053 -26.252791 7.589180 -21.315982 65.739788 -2.082205 -11.189268 0.514373 0.309380 0.049280 0.101090 -2.854807 -1.765728 -10.342245 -27.384319 13.306519 38.157277 5.621085 8.732876 11.463823 -6.615838 -8.230683 -25.361266 -34.695504 18.877314 72.190654 16.189290 2.531110 -26.117520 1.115737 -40.411396 -4.521104 3.757992 -31.627333 -10.932891 83.586010 -69.034913 -57.223145 -2.890004 0.465029 1.288920 -0.352180 0.464460 0.130040 16.262747 49.005247 21.950796 30.624423 47.170708 0.461166 5.394327 22.252872 1.170521 2.008218 -0.445122 -0.326680 0.689440 -0.009840 -0.287570 
